<?xml version="1.0" standalone="no"?>
<!DOCTYPE svg PUBLIC "-//W3C//DTD SVG 20010904//EN"
 "http://www.w3.org/TR/2001/REC-SVG-20010904/DTD/svg10.dtd">
<svg version="1.0" xmlns="http://www.w3.org/2000/svg"
 width="400.000000pt" height="400.000000pt" viewBox="0 0 400.000000 400.000000"
 preserveAspectRatio="xMidYMid meet">
<metadata>
Created by potrace 1.11, written by Peter Selinger 2001-2013
</metadata>
<g transform="translate(0.000000,400.000000) scale(0.100000,-0.100000)"
fill="#000000" stroke="none">
<path d="M1755 3891 c-50 -22 -96 -68 -121 -118 -14 -29 -20 -71 -24 -178 -5
-115 -10 -147 -27 -180 -43 -82 -114 -125 -205 -125 -74 1 -122 26 -203 110
-88 91 -145 120 -235 120 -101 -1 -136 -22 -293 -178 -76 -75 -147 -153 -157
-172 -29 -57 -34 -120 -15 -186 14 -49 29 -70 104 -148 93 -96 114 -128 125
-188 14 -80 -36 -181 -113 -226 -43 -25 -57 -27 -191 -33 -165 -6 -199 -17
-262 -87 -57 -63 -63 -93 -63 -312 0 -219 6 -249 63 -312 63 -70 97 -81 262
-87 134 -6 148 -8 191 -33 77 -45 127 -146 113 -226 -11 -60 -32 -92 -125
-188 -75 -78 -90 -99 -104 -148 -19 -66 -14 -129 15 -186 10 -19 85 -101 167
-181 161 -159 184 -173 283 -173 82 1 138 31 238 127 98 95 134 111 223 105
73 -5 130 -42 173 -111 28 -46 30 -55 35 -195 6 -138 8 -150 34 -195 36 -61
94 -103 164 -117 34 -8 122 -10 232 -8 195 4 228 12 289 71 64 61 75 96 82
257 6 159 13 181 72 237 44 42 96 63 158 63 70 0 118 -27 220 -125 95 -92 133
-110 225 -108 93 1 126 22 279 172 159 156 186 199 186 296 0 86 -31 144 -125
235 -42 41 -86 93 -96 115 -50 107 2 239 115 291 44 21 66 24 165 24 62 0 131
5 152 11 50 16 105 61 132 112 20 39 22 57 25 264 3 210 2 224 -19 273 -25 59
-82 112 -138 128 -21 7 -90 12 -152 12 -99 0 -121 3 -165 24 -75 35 -134 122
-134 198 0 73 19 107 116 209 107 111 126 148 126 234 0 94 -19 125 -170 278
-159 162 -200 187 -302 187 -90 0 -147 -29 -235 -120 -86 -88 -131 -113 -205
-113 -67 0 -122 26 -173 82 -47 52 -57 92 -57 231 0 100 -3 122 -24 165 -13
28 -39 64 -57 82 -62 58 -86 63 -321 63 -185 0 -218 -3 -253 -19z m441 -1131
c268 -67 481 -266 571 -535 25 -73 27 -93 27 -235 0 -142 -2 -162 -27 -235
-90 -268 -304 -468 -571 -535 -109 -27 -274 -27 -382 0 -278 71 -501 294 -575
575 -32 122 -30 290 6 410 81 275 294 483 565 554 105 28 279 28 386 1z"/>
<path d="M1685 2560 c-39 -18 -83 -66 -99 -108 -14 -37 -16 -99 -16 -471 0
-350 3 -436 15 -470 8 -22 11 -41 8 -41 -4 0 10 -16 31 -35 75 -69 170 -62
317 22 56 32 118 67 138 79 20 11 62 36 94 55 31 19 70 41 85 49 43 24 175
100 192 110 137 82 134 80 173 132 21 29 27 48 27 87 0 27 -4 60 -9 73 -16 40
-85 102 -159 142 -40 22 -72 43 -72 48 0 4 -6 8 -14 8 -7 0 -30 11 -50 25 -20
13 -36 22 -36 20 0 -2 -36 18 -81 45 -44 28 -82 50 -84 50 -1 0 -34 19 -71 42
-190 115 -247 141 -314 145 -30 1 -64 -1 -75 -7z"/>
</g>
</svg>
