<svg id="svg" version="1.1" xmlns="http://www.w3.org/2000/svg" xmlns:xlink="http://www.w3.org/1999/xlink" width="400" height="400" viewBox="0, 0, 400,400"><g id="svgg"><path id="path0" d="M178.800 8.840 C 178.800 9.115,178.145 9.228,177.063 9.140 C 175.584 9.021,175.353 9.101,175.506 9.685 C 175.641 10.198,175.480 10.331,174.869 10.213 C 174.419 10.127,173.838 10.313,173.577 10.628 C 173.316 10.943,172.899 11.201,172.651 11.203 C 172.403 11.204,171.480 11.916,170.600 12.783 C 169.720 13.651,168.685 14.370,168.300 14.380 C 167.915 14.391,167.600 14.580,167.600 14.800 C 167.600 15.020,167.240 15.200,166.800 15.200 C 166.192 15.200,166.000 15.467,166.000 16.312 C 166.000 16.965,165.670 17.661,165.200 18.000 C 164.760 18.317,164.400 18.881,164.400 19.253 C 164.400 19.625,163.888 20.359,163.263 20.886 C 162.457 21.564,162.115 22.230,162.088 23.176 C 162.067 23.909,161.859 24.701,161.625 24.935 C 161.391 25.169,161.200 25.759,161.200 26.247 C 161.200 26.734,160.975 27.208,160.700 27.300 C 160.315 27.428,160.200 30.196,160.200 39.333 C 160.200 48.560,160.089 51.200,159.700 51.200 C 159.367 51.200,159.200 51.867,159.200 53.200 C 159.200 54.300,159.020 55.200,158.800 55.200 C 158.580 55.200,158.400 55.740,158.400 56.400 C 158.400 57.060,158.220 57.600,158.000 57.600 C 157.780 57.600,157.600 57.939,157.600 58.353 C 157.600 58.770,157.243 59.200,156.800 59.316 C 156.254 59.459,156.000 59.862,156.000 60.586 C 156.000 61.192,155.828 61.541,155.600 61.400 C 155.380 61.264,155.200 61.444,155.200 61.800 C 155.200 62.156,155.020 62.336,154.800 62.200 C 154.580 62.064,154.400 62.281,154.400 62.681 C 154.400 63.082,153.913 63.768,153.317 64.205 C 152.722 64.642,151.927 65.300,151.551 65.667 C 151.174 66.033,150.762 66.228,150.633 66.100 C 150.505 65.972,150.400 66.232,150.400 66.678 C 150.400 67.327,150.201 67.451,149.400 67.298 C 148.850 67.193,148.400 67.295,148.400 67.524 C 148.400 68.131,146.065 69.200,144.739 69.200 C 144.112 69.200,143.600 69.380,143.600 69.600 C 143.600 69.848,141.467 70.000,138.000 70.000 C 134.533 70.000,132.400 69.848,132.400 69.600 C 132.400 69.380,131.860 69.200,131.200 69.200 C 130.540 69.200,130.000 69.020,130.000 68.800 C 130.000 68.580,129.865 68.421,129.700 68.447 C 128.586 68.623,127.620 68.293,127.422 67.669 C 127.283 67.233,126.829 66.950,126.296 66.969 C 125.734 66.988,125.255 66.666,125.006 66.100 C 124.788 65.605,124.452 65.200,124.258 65.200 C 123.745 65.200,120.800 62.174,120.800 61.647 C 120.800 61.401,120.595 61.200,120.344 61.200 C 120.093 61.200,117.664 58.950,114.945 56.200 C 112.227 53.450,109.743 51.200,109.425 51.200 C 109.107 51.200,108.736 51.020,108.600 50.800 C 108.464 50.580,108.012 50.400,107.596 50.400 C 107.180 50.400,106.696 50.145,106.520 49.832 C 106.344 49.520,105.934 49.205,105.610 49.132 C 105.285 49.060,104.777 48.775,104.481 48.500 C 104.185 48.225,103.506 48.000,102.971 48.000 C 102.437 48.000,102.000 47.834,102.000 47.631 C 102.000 47.420,98.664 47.243,94.200 47.217 C 89.766 47.192,86.400 47.329,86.400 47.535 C 86.400 47.734,85.680 48.013,84.800 48.154 C 83.783 48.316,83.200 48.622,83.200 48.992 C 83.200 49.315,82.961 49.483,82.664 49.369 C 82.369 49.256,81.897 49.442,81.615 49.782 C 81.333 50.122,80.674 50.400,80.151 50.400 C 79.628 50.400,79.200 50.580,79.200 50.800 C 79.200 51.020,78.762 51.200,78.227 51.200 C 77.614 51.200,77.162 51.488,77.006 51.980 C 76.649 53.105,74.589 55.200,73.840 55.200 C 73.488 55.200,73.200 55.476,73.200 55.813 C 73.200 56.622,70.604 59.200,69.790 59.200 C 69.439 59.200,69.249 59.355,69.366 59.544 C 69.483 59.734,69.061 60.381,68.428 60.983 C 66.944 62.395,62.395 66.944,60.983 68.428 C 60.381 69.061,59.734 69.483,59.544 69.366 C 59.355 69.249,59.200 69.439,59.200 69.790 C 59.200 70.604,56.622 73.200,55.813 73.200 C 55.476 73.200,55.195 73.515,55.188 73.900 C 55.181 74.285,54.623 75.050,53.948 75.600 C 53.273 76.150,52.071 77.275,51.277 78.100 C 50.483 78.925,49.580 79.600,49.270 79.600 C 48.904 79.600,48.780 79.880,48.916 80.400 C 49.031 80.839,48.973 81.293,48.788 81.408 C 48.261 81.733,47.200 84.042,47.200 84.861 C 47.200 85.268,47.020 85.600,46.800 85.600 C 46.578 85.600,46.400 86.667,46.400 88.000 C 46.400 89.867,46.267 90.400,45.800 90.400 C 45.470 90.400,45.192 90.580,45.182 90.800 C 45.172 91.020,45.164 92.730,45.164 94.600 C 45.164 96.470,45.172 98.180,45.182 98.400 C 45.192 98.620,45.470 98.800,45.800 98.800 C 46.240 98.800,46.400 99.258,46.400 100.520 C 46.400 101.466,46.571 102.411,46.781 102.621 C 46.990 102.830,47.206 103.665,47.261 104.475 C 47.315 105.285,47.504 105.859,47.680 105.751 C 47.856 105.642,48.000 105.904,48.000 106.334 C 48.000 106.763,48.282 107.223,48.628 107.355 C 49.045 107.516,49.170 107.865,49.000 108.400 C 48.823 108.959,48.961 109.287,49.454 109.476 C 50.349 109.820,55.200 114.645,55.200 115.193 C 55.200 115.417,55.365 115.600,55.567 115.600 C 56.093 115.600,59.200 118.653,59.200 119.169 C 59.200 119.406,59.336 119.600,59.502 119.600 C 60.158 119.600,65.200 124.860,65.200 125.545 C 65.200 126.386,66.394 127.597,67.231 127.606 C 67.696 127.611,67.702 127.674,67.266 127.951 C 66.589 128.380,66.707 128.860,67.654 129.523 C 68.064 129.810,68.400 130.395,68.400 130.823 C 68.400 131.250,68.580 131.600,68.800 131.600 C 69.020 131.600,69.200 132.579,69.200 133.776 C 69.200 134.973,69.380 136.064,69.600 136.200 C 70.122 136.523,70.122 140.400,69.600 140.400 C 69.380 140.400,69.200 141.210,69.200 142.200 C 69.200 143.190,69.020 144.000,68.800 144.000 C 68.580 144.000,68.400 144.643,68.400 145.429 C 68.400 146.811,67.684 148.000,66.852 148.000 C 66.629 148.000,66.319 148.208,66.162 148.462 C 65.991 148.738,66.051 148.815,66.311 148.655 C 66.550 148.507,66.468 148.943,66.129 149.623 C 65.790 150.303,65.262 150.955,64.956 151.072 C 64.650 151.190,64.400 151.729,64.400 152.271 C 64.400 153.402,63.558 154.400,62.605 154.400 C 62.246 154.400,62.064 154.580,62.200 154.800 C 62.340 155.027,62.004 155.200,61.424 155.200 C 60.860 155.200,60.400 155.429,60.400 155.711 C 60.400 156.371,58.966 157.600,58.195 157.600 C 57.868 157.600,57.600 157.780,57.600 158.000 C 57.600 158.220,57.060 158.400,56.400 158.400 C 55.740 158.400,55.200 158.580,55.200 158.800 C 55.200 159.020,54.673 159.200,54.029 159.200 C 53.384 159.200,52.619 159.425,52.329 159.700 C 51.930 160.077,48.828 160.200,39.685 160.200 C 30.738 160.200,27.494 160.325,27.276 160.677 C 27.114 160.939,26.131 161.198,25.091 161.252 C 24.051 161.305,23.200 161.496,23.200 161.675 C 23.200 161.854,22.840 162.000,22.400 162.000 C 21.960 162.000,21.600 162.180,21.600 162.400 C 21.600 162.620,21.330 162.800,21.000 162.800 C 20.670 162.800,20.040 163.160,19.600 163.600 C 19.160 164.040,18.607 164.400,18.371 164.400 C 18.136 164.400,17.671 164.672,17.339 165.004 C 17.007 165.336,16.566 165.502,16.358 165.374 C 16.150 165.246,16.030 165.379,16.090 165.670 C 16.151 165.962,15.962 166.151,15.670 166.090 C 15.379 166.030,15.259 166.172,15.404 166.406 C 15.652 166.808,12.541 170.000,11.900 170.000 C 11.735 170.000,11.600 170.230,11.600 170.511 C 11.600 170.792,11.232 171.337,10.783 171.722 C 10.334 172.107,10.074 172.597,10.207 172.811 C 10.339 173.025,10.167 173.200,9.824 173.200 C 9.397 173.200,9.200 173.580,9.200 174.400 C 9.200 175.060,9.020 175.600,8.800 175.600 C 8.580 175.600,8.400 176.219,8.400 176.976 C 8.400 177.733,8.220 178.464,8.000 178.600 C 7.780 178.736,7.600 179.994,7.600 181.397 C 7.600 183.595,7.490 183.981,6.800 184.200 C 5.974 184.462,5.476 217.683,6.300 217.553 C 7.453 217.371,7.600 217.716,7.600 220.600 C 7.600 222.333,7.769 223.600,8.000 223.600 C 8.220 223.600,8.400 224.320,8.400 225.200 C 8.400 226.080,8.580 226.800,8.800 226.800 C 9.020 226.800,9.200 227.160,9.200 227.600 C 9.200 228.040,9.453 228.400,9.763 228.400 C 10.110 228.400,10.252 228.679,10.135 229.128 C 10.007 229.617,10.479 230.340,11.573 231.328 C 12.469 232.138,13.084 232.800,12.940 232.800 C 12.796 232.800,13.110 233.174,13.639 233.631 C 14.167 234.088,15.402 235.213,16.383 236.131 C 18.274 237.902,19.719 238.800,20.674 238.800 C 20.995 238.800,21.529 239.072,21.861 239.404 C 22.193 239.736,22.630 239.905,22.832 239.780 C 23.035 239.655,23.200 239.819,23.200 240.145 C 23.200 240.852,25.222 241.374,26.452 240.984 C 27.094 240.780,27.266 240.850,27.111 241.254 C 26.936 241.710,28.977 241.782,39.451 241.689 C 47.846 241.615,52.000 241.714,52.000 241.989 C 52.000 242.215,52.720 242.400,53.600 242.400 C 55.041 242.400,55.363 242.634,55.276 243.615 C 55.265 243.733,55.739 243.870,56.328 243.919 C 56.918 243.967,57.460 244.185,57.533 244.403 C 57.607 244.622,58.012 244.800,58.433 244.800 C 58.855 244.800,59.200 244.980,59.200 245.200 C 59.200 245.420,59.434 245.600,59.720 245.600 C 60.006 245.600,60.465 245.825,60.740 246.100 C 61.015 246.375,61.366 246.601,61.520 246.603 C 62.162 246.609,64.400 248.989,64.400 249.666 C 64.400 250.070,64.580 250.400,64.800 250.400 C 65.020 250.400,65.200 250.771,65.200 251.224 C 65.200 251.677,65.380 251.936,65.600 251.800 C 65.970 251.571,66.202 252.467,66.014 253.400 C 65.970 253.620,66.057 253.676,66.209 253.524 C 66.683 253.050,68.400 255.114,68.400 256.158 C 68.400 256.705,68.580 257.264,68.800 257.400 C 69.020 257.536,69.200 258.447,69.200 259.424 C 69.200 260.401,69.380 261.200,69.600 261.200 C 69.820 261.200,70.000 262.100,70.000 263.200 C 70.000 264.300,69.820 265.200,69.600 265.200 C 69.374 265.200,69.200 266.341,69.200 267.824 C 69.200 269.513,69.054 270.357,68.790 270.194 C 68.565 270.055,68.406 270.089,68.437 270.270 C 68.633 271.397,68.322 272.400,67.776 272.400 C 67.433 272.400,67.244 272.548,67.356 272.728 C 67.621 273.157,66.132 275.600,65.606 275.600 C 65.383 275.600,65.200 275.962,65.200 276.404 C 65.200 277.387,63.191 279.548,62.500 279.307 C 62.225 279.212,62.000 279.418,62.000 279.767 C 62.000 280.115,61.809 280.400,61.576 280.400 C 61.343 280.400,61.254 280.564,61.377 280.764 C 61.588 281.105,60.408 282.246,58.456 283.588 C 57.985 283.912,57.600 284.466,57.600 284.821 C 57.600 285.175,57.105 285.719,56.500 286.030 C 55.183 286.706,54.112 287.818,53.785 288.848 C 53.654 289.261,53.333 289.600,53.073 289.600 C 52.319 289.601,50.400 291.429,50.400 292.147 C 50.400 292.506,50.130 292.800,49.800 292.800 C 49.470 292.800,49.200 293.141,49.200 293.557 C 49.200 293.974,48.930 294.418,48.600 294.545 C 48.270 294.671,48.000 295.141,48.000 295.587 C 48.000 296.034,47.820 296.400,47.600 296.400 C 47.380 296.400,47.200 297.109,47.200 297.976 C 47.200 298.843,47.020 299.664,46.800 299.800 C 46.580 299.936,46.400 300.833,46.400 301.794 C 46.400 303.099,46.233 303.574,45.740 303.671 C 44.851 303.845,44.925 310.583,45.826 311.483 C 46.196 311.853,46.400 312.902,46.400 314.429 C 46.400 315.733,46.535 316.801,46.700 316.803 C 47.095 316.807,48.000 318.776,48.000 319.631 C 48.000 320.000,48.270 320.526,48.600 320.800 C 48.930 321.074,49.200 321.508,49.200 321.765 C 49.200 322.023,49.785 322.811,50.500 323.517 C 54.025 326.997,55.621 328.400,56.056 328.400 C 56.319 328.400,56.418 328.515,56.277 328.656 C 56.136 328.797,57.186 330.000,58.610 331.329 C 60.035 332.657,61.200 333.982,61.200 334.272 C 61.200 334.562,61.379 334.800,61.597 334.800 C 61.816 334.800,65.882 338.670,70.632 343.400 C 75.383 348.130,79.434 352.000,79.635 352.000 C 79.836 352.000,80.000 352.141,80.000 352.313 C 80.000 352.485,80.495 352.666,81.100 352.716 C 81.705 352.766,82.260 352.985,82.333 353.203 C 82.407 353.422,83.075 353.600,83.819 353.600 C 84.747 353.600,85.302 353.843,85.586 354.373 C 85.927 355.011,86.382 355.131,88.200 355.062 C 89.762 355.002,90.400 355.126,90.400 355.489 C 90.400 356.202,96.263 356.212,96.500 355.500 C 96.599 355.203,97.467 354.974,98.634 354.935 C 101.419 354.844,101.966 354.725,101.878 354.233 C 101.835 353.995,102.475 353.744,103.300 353.676 C 104.125 353.608,104.800 353.383,104.800 353.176 C 104.800 352.969,105.261 352.800,105.824 352.800 C 106.404 352.800,106.740 352.627,106.600 352.400 C 106.455 352.166,106.870 352.000,107.600 352.000 C 108.286 352.000,108.750 351.843,108.632 351.652 C 108.306 351.124,109.791 349.602,110.647 349.587 C 111.490 349.573,112.800 348.702,112.800 348.156 C 112.801 347.602,114.639 345.600,115.147 345.600 C 115.396 345.600,115.600 345.420,115.600 345.200 C 115.600 344.980,115.870 344.800,116.200 344.800 C 116.530 344.800,116.800 344.522,116.800 344.182 C 116.800 343.486,118.540 341.600,119.182 341.600 C 119.412 341.600,119.600 341.420,119.600 341.200 C 119.600 340.980,119.881 340.800,120.224 340.800 C 120.567 340.800,120.751 340.644,120.633 340.453 C 120.515 340.262,121.285 339.360,122.345 338.448 C 123.404 337.535,124.510 336.341,124.803 335.794 C 125.177 335.095,125.671 334.800,126.468 334.800 C 127.090 334.800,127.600 334.620,127.600 334.400 C 127.600 334.180,127.920 334.000,128.312 334.000 C 128.703 334.000,129.278 333.647,129.589 333.215 C 130.037 332.594,130.273 332.528,130.723 332.902 C 131.175 333.277,131.439 333.192,132.010 332.487 C 132.907 331.379,143.600 331.075,143.600 332.157 C 143.600 332.838,144.466 333.210,145.461 332.958 C 145.881 332.852,146.638 333.166,147.215 333.686 C 147.773 334.189,148.493 334.659,148.815 334.730 C 149.137 334.802,149.460 335.027,149.533 335.230 C 149.607 335.434,149.914 335.600,150.216 335.600 C 151.073 335.600,155.200 339.906,155.200 340.800 C 155.200 341.261,155.467 341.600,155.829 341.600 C 156.773 341.600,157.600 342.614,157.600 343.771 C 157.600 344.337,157.780 344.800,158.000 344.800 C 158.220 344.800,158.400 345.160,158.400 345.600 C 158.400 346.040,158.580 346.400,158.800 346.400 C 159.029 346.400,159.200 347.600,159.200 349.200 C 159.200 351.173,159.348 352.000,159.700 352.000 C 160.091 352.000,160.176 354.502,160.088 363.477 C 159.990 373.443,160.056 375.000,160.588 375.297 C 160.953 375.501,161.200 376.197,161.200 377.020 C 161.200 377.779,161.380 378.400,161.600 378.400 C 161.820 378.400,162.000 378.940,162.000 379.600 C 162.000 380.400,162.200 380.800,162.600 380.800 C 162.930 380.800,163.200 381.141,163.200 381.557 C 163.200 381.974,163.470 382.418,163.800 382.545 C 164.130 382.671,164.400 383.061,164.400 383.411 C 164.400 383.761,164.580 383.936,164.800 383.800 C 165.020 383.664,165.200 383.894,165.200 384.312 C 165.200 384.730,165.785 385.626,166.500 386.303 C 167.215 386.980,168.306 388.104,168.925 388.800 C 169.562 389.518,170.292 389.974,170.610 389.852 C 170.919 389.733,171.517 390.076,171.943 390.618 C 172.410 391.212,173.127 391.600,173.758 391.600 C 174.331 391.600,174.800 391.780,174.800 392.000 C 174.800 392.220,175.319 392.400,175.953 392.400 C 176.770 392.400,177.168 392.633,177.316 393.200 C 177.496 393.890,177.862 394.000,179.963 394.000 C 181.321 394.000,182.400 394.177,182.400 394.400 C 182.400 394.661,188.667 394.800,200.400 394.800 C 212.133 394.800,218.400 394.661,218.400 394.400 C 218.400 394.179,219.450 394.000,220.751 394.000 C 223.012 394.000,224.402 393.349,223.697 392.620 C 223.533 392.451,224.232 392.378,225.249 392.457 C 226.506 392.554,227.043 392.455,226.925 392.149 C 226.826 391.890,227.381 391.580,228.231 391.421 C 229.258 391.228,230.259 390.572,231.511 389.272 C 232.502 388.242,233.467 387.445,233.656 387.500 C 233.845 387.555,233.955 387.452,233.900 387.270 C 233.780 386.874,237.109 383.600,237.633 383.600 C 237.835 383.600,238.000 383.150,238.000 382.600 C 238.000 382.050,238.180 381.600,238.400 381.600 C 238.620 381.600,238.806 381.285,238.813 380.900 C 238.820 380.515,239.077 379.868,239.385 379.461 C 239.693 379.055,239.848 378.470,239.730 378.161 C 239.588 377.792,239.795 377.600,240.332 377.600 C 241.047 377.600,241.141 377.371,241.075 375.800 C 241.034 374.810,241.135 374.000,241.300 374.000 C 241.465 374.000,241.600 368.330,241.600 361.400 C 241.600 353.267,241.742 348.800,242.000 348.800 C 242.220 348.800,242.400 348.080,242.400 347.200 C 242.400 345.727,242.667 345.389,243.700 345.553 C 243.865 345.579,244.000 345.060,244.000 344.400 C 244.000 343.740,244.180 343.200,244.400 343.200 C 244.620 343.200,244.800 342.883,244.800 342.496 C 244.800 342.109,245.160 341.568,245.600 341.293 C 246.040 341.018,246.400 340.495,246.400 340.130 C 246.400 339.765,246.517 339.583,246.659 339.726 C 246.802 339.869,248.085 338.819,249.511 337.393 C 250.937 335.967,252.440 334.800,252.852 334.800 C 253.263 334.800,253.600 334.620,253.600 334.400 C 253.600 334.180,254.134 334.000,254.787 334.000 C 255.733 334.000,255.923 333.864,255.718 333.331 C 255.523 332.822,255.623 332.723,256.135 332.920 C 256.864 333.199,258.800 332.485,258.800 331.936 C 258.800 331.125,268.980 331.557,269.500 332.389 C 269.771 332.823,270.236 333.084,270.532 332.971 C 270.829 332.857,271.303 333.042,271.585 333.382 C 271.867 333.722,272.346 334.000,272.649 334.000 C 272.952 334.000,273.200 334.180,273.200 334.400 C 273.200 334.620,273.674 334.800,274.253 334.800 C 275.245 334.800,276.964 336.211,276.630 336.752 C 276.546 336.888,276.905 337.026,277.429 337.057 C 278.095 337.097,280.609 339.354,285.784 344.557 C 289.855 348.651,293.470 352.000,293.817 352.000 C 294.163 352.000,294.336 352.180,294.200 352.400 C 294.056 352.633,294.463 352.800,295.176 352.800 C 295.849 352.800,296.400 352.980,296.400 353.200 C 296.400 353.420,297.020 353.600,297.777 353.600 C 298.666 353.600,299.340 353.864,299.677 354.344 C 300.065 354.895,300.702 355.087,302.141 355.087 C 303.209 355.086,304.199 355.265,304.341 355.484 C 304.755 356.120,310.854 356.159,311.244 355.528 C 311.475 355.155,312.334 355.039,314.185 355.133 C 316.610 355.255,316.800 355.204,316.800 354.432 C 316.800 353.867,317.056 353.600,317.600 353.600 C 318.040 353.600,318.400 353.420,318.400 353.200 C 318.400 352.980,318.987 352.800,319.704 352.800 C 320.553 352.800,321.398 352.438,322.124 351.765 C 322.738 351.196,323.466 350.816,323.742 350.922 C 324.017 351.028,324.454 350.639,324.711 350.057 C 324.969 349.476,325.725 348.760,326.390 348.466 C 327.056 348.173,327.600 347.665,327.600 347.338 C 327.600 346.633,328.551 345.600,329.200 345.600 C 329.761 345.600,330.557 344.776,330.722 344.024 C 330.789 343.718,331.395 343.002,332.069 342.434 C 332.743 341.865,334.042 340.670,334.957 339.777 C 335.871 338.885,336.930 338.036,337.310 337.890 C 337.689 337.744,338.000 337.433,338.000 337.198 C 338.000 336.963,338.765 335.988,339.700 335.032 C 340.635 334.076,341.865 332.743,342.434 332.069 C 343.002 331.395,343.718 330.789,344.024 330.722 C 344.776 330.557,345.600 329.761,345.600 329.200 C 345.600 328.565,346.628 327.600,347.304 327.600 C 347.612 327.600,348.120 327.116,348.432 326.525 C 349.193 325.085,350.577 323.726,351.105 323.902 C 351.340 323.980,351.653 323.629,351.802 323.122 C 352.286 321.468,352.989 320.000,353.298 320.000 C 353.464 320.000,353.600 319.550,353.600 319.000 C 353.600 318.450,353.969 317.631,354.420 317.180 C 354.917 316.683,355.150 316.073,355.011 315.636 C 354.882 315.229,355.048 314.692,355.391 314.407 C 356.191 313.744,356.299 301.259,355.512 300.472 C 355.243 300.203,355.012 299.402,354.998 298.692 C 354.981 297.835,354.775 297.400,354.386 297.400 C 354.044 297.400,353.747 296.942,353.673 296.300 C 353.604 295.695,353.379 295.200,353.173 295.200 C 352.968 295.200,352.800 294.855,352.800 294.433 C 352.800 294.012,352.622 293.607,352.403 293.533 C 352.185 293.460,351.966 292.905,351.916 292.300 C 351.866 291.695,351.592 291.200,351.306 291.200 C 350.698 291.200,344.800 285.404,344.800 284.806 C 344.800 284.583,344.626 284.400,344.413 284.400 C 344.052 284.400,343.263 283.648,340.146 280.333 C 339.457 279.600,337.978 278.190,336.860 277.200 C 335.360 275.873,334.823 275.111,334.813 274.300 C 334.806 273.695,334.620 273.200,334.400 273.200 C 334.180 273.200,334.000 272.952,334.000 272.649 C 334.000 272.346,333.735 271.878,333.412 271.610 C 333.088 271.341,332.847 270.824,332.875 270.461 C 332.986 269.043,332.775 268.400,332.200 268.400 C 331.067 268.400,331.348 259.844,332.500 259.288 C 332.995 259.049,333.153 258.842,332.851 258.827 C 332.427 258.806,332.408 258.673,332.765 258.242 C 333.020 257.935,333.177 257.440,333.114 257.142 C 333.051 256.844,333.225 256.645,333.500 256.700 C 333.831 256.766,334.000 256.279,334.000 255.262 C 334.000 254.232,334.264 253.485,334.800 253.000 C 335.240 252.602,335.600 252.042,335.600 251.755 C 335.600 251.468,336.591 250.267,337.801 249.085 C 339.012 247.903,339.914 246.848,339.807 246.740 C 339.699 246.633,340.239 246.299,341.006 245.998 C 341.773 245.697,342.400 245.304,342.400 245.125 C 342.400 244.946,342.856 244.800,343.413 244.800 C 343.969 244.800,344.521 244.550,344.638 244.244 C 344.764 243.918,345.178 243.774,345.643 243.895 C 346.078 244.009,346.405 243.944,346.370 243.751 C 346.173 242.677,346.507 242.400,348.000 242.400 C 348.880 242.400,349.600 242.220,349.600 242.000 C 349.600 241.742,354.067 241.600,362.200 241.600 C 369.130 241.600,374.800 241.453,374.800 241.273 C 374.800 241.093,375.430 240.995,376.200 241.056 C 377.365 241.148,377.600 241.034,377.600 240.375 C 377.600 239.746,377.791 239.633,378.537 239.820 C 379.196 239.985,379.835 239.750,380.694 239.027 C 381.366 238.462,382.295 238.000,382.758 238.000 C 383.221 238.000,383.600 237.835,383.600 237.633 C 383.600 237.086,386.883 233.782,387.300 233.910 C 387.498 233.970,387.549 233.841,387.414 233.623 C 387.279 233.405,387.536 232.997,387.984 232.717 C 388.433 232.437,388.800 231.968,388.800 231.675 C 388.800 231.382,389.080 230.863,389.423 230.520 C 389.766 230.177,389.949 229.643,389.830 229.333 C 389.711 229.023,389.880 228.667,390.207 228.542 C 390.533 228.417,390.800 227.954,390.800 227.514 C 390.800 227.038,391.002 226.792,391.300 226.907 C 391.672 227.050,391.765 226.548,391.663 224.950 C 391.576 223.578,391.684 222.800,391.963 222.800 C 392.274 222.800,392.400 216.387,392.400 200.600 C 392.400 184.660,392.275 178.400,391.958 178.400 C 391.686 178.400,391.573 177.804,391.664 176.849 C 391.765 175.784,391.666 175.353,391.346 175.476 C 391.089 175.575,390.890 175.418,390.903 175.127 C 390.963 173.765,390.750 173.200,390.176 173.200 C 389.833 173.200,389.655 173.035,389.780 172.832 C 389.905 172.630,389.736 172.193,389.404 171.861 C 389.072 171.529,388.800 170.923,388.800 170.514 C 388.800 170.106,387.900 168.975,386.800 168.000 C 385.700 167.025,384.800 165.997,384.800 165.714 C 384.800 165.431,384.519 165.200,384.176 165.200 C 383.833 165.200,383.664 165.020,383.800 164.800 C 383.944 164.568,383.549 164.400,382.857 164.400 C 381.923 164.400,381.554 164.145,381.143 163.216 C 380.715 162.248,380.390 162.040,379.372 162.078 C 378.687 162.104,377.872 161.966,377.563 161.773 C 377.253 161.579,376.550 161.363,376.000 161.292 C 375.450 161.222,374.796 160.897,374.548 160.570 C 374.162 160.064,372.294 159.993,361.847 160.089 C 352.256 160.176,349.600 160.092,349.600 159.700 C 349.600 159.383,349.013 159.200,348.000 159.200 C 347.120 159.200,346.400 159.020,346.400 158.800 C 346.400 158.580,346.040 158.400,345.600 158.400 C 345.160 158.400,344.800 158.220,344.800 158.000 C 344.800 157.780,344.260 157.600,343.600 157.600 C 342.667 157.600,342.400 157.422,342.400 156.800 C 342.400 156.267,342.133 156.000,341.600 156.000 C 341.160 156.000,340.800 155.820,340.800 155.600 C 340.800 155.380,340.620 155.200,340.401 155.200 C 339.519 155.200,337.100 152.444,337.100 151.439 C 337.100 150.875,336.966 150.498,336.802 150.599 C 336.285 150.918,334.800 149.344,334.800 148.477 C 334.800 148.020,334.620 147.536,334.400 147.400 C 334.180 147.264,334.000 146.816,334.000 146.403 C 334.000 145.991,333.640 145.540,333.200 145.400 C 332.760 145.260,332.400 144.968,332.400 144.749 C 332.400 144.531,332.580 144.464,332.800 144.600 C 333.027 144.740,333.200 144.404,333.200 143.824 C 333.200 143.261,333.065 142.821,332.900 142.847 C 331.709 143.035,331.600 142.697,331.600 138.827 C 331.600 135.356,331.691 134.825,332.318 134.626 C 333.141 134.365,333.502 131.834,332.781 131.388 C 332.498 131.213,332.636 130.910,333.171 130.536 C 333.627 130.216,334.000 129.645,334.000 129.266 C 334.000 128.887,334.360 128.317,334.800 128.000 C 335.240 127.683,335.600 126.996,335.600 126.474 C 335.600 125.862,335.884 125.451,336.400 125.316 C 336.840 125.201,337.200 124.937,337.200 124.730 C 337.200 124.522,337.380 124.464,337.600 124.600 C 337.820 124.736,338.000 124.556,338.000 124.200 C 338.000 123.813,338.185 123.667,338.462 123.838 C 338.730 124.004,338.816 123.949,338.666 123.706 C 338.524 123.477,339.306 122.472,340.404 121.473 C 341.502 120.474,342.400 119.464,342.400 119.228 C 342.400 118.993,342.565 118.800,342.767 118.800 C 343.300 118.800,346.400 115.744,346.400 115.219 C 346.400 114.975,346.715 114.658,347.100 114.515 C 347.804 114.254,348.535 113.529,350.134 111.504 C 350.610 110.901,351.225 110.406,351.500 110.404 C 351.775 110.402,352.004 110.085,352.009 109.700 C 352.014 109.315,352.370 108.550,352.800 108.000 C 353.230 107.450,353.586 106.815,353.591 106.589 C 353.596 106.363,353.978 105.855,354.439 105.459 C 354.970 105.005,355.202 104.449,355.070 103.946 C 354.946 103.471,355.091 103.063,355.431 102.933 C 355.856 102.769,356.000 101.918,356.000 99.557 C 356.000 97.719,356.167 96.400,356.400 96.400 C 356.908 96.400,356.927 93.488,356.422 92.980 C 356.215 92.771,356.009 91.214,355.965 89.521 C 355.913 87.528,355.712 86.375,355.395 86.254 C 355.104 86.142,354.952 85.487,355.020 84.633 C 355.114 83.448,355.001 83.200,354.367 83.200 C 353.867 83.200,353.600 82.922,353.600 82.400 C 353.600 81.960,353.420 81.600,353.200 81.600 C 352.980 81.600,352.800 81.229,352.800 80.776 C 352.800 80.323,352.620 80.064,352.400 80.200 C 352.180 80.336,352.000 80.182,352.000 79.859 C 352.000 79.535,348.130 75.383,343.400 70.632 C 338.670 65.882,334.800 61.816,334.800 61.597 C 334.800 61.379,334.562 61.200,334.272 61.200 C 333.982 61.200,332.657 60.035,331.329 58.610 C 330.000 57.186,328.797 56.136,328.656 56.277 C 328.515 56.418,328.400 56.319,328.400 56.056 C 328.400 55.794,327.590 54.769,326.600 53.779 C 325.610 52.789,324.800 51.804,324.800 51.589 C 324.800 51.375,324.350 51.200,323.800 51.200 C 323.250 51.200,322.800 51.020,322.800 50.800 C 322.800 50.580,322.371 50.400,321.847 50.400 C 321.211 50.400,320.819 50.117,320.671 49.550 C 320.492 48.867,320.249 48.751,319.425 48.958 C 318.662 49.149,318.400 49.060,318.400 48.608 C 318.400 48.199,318.007 48.000,317.200 48.000 C 316.540 48.000,316.000 47.820,316.000 47.600 C 316.000 47.347,313.133 47.200,308.200 47.200 C 303.267 47.200,300.400 47.347,300.400 47.600 C 300.400 47.820,299.770 48.000,299.000 48.000 C 298.227 48.000,297.254 48.314,296.829 48.700 C 295.292 50.095,294.823 50.400,294.217 50.400 C 293.878 50.400,293.600 50.580,293.600 50.800 C 293.600 51.020,293.253 51.200,292.829 51.200 C 292.404 51.200,291.796 51.461,291.476 51.781 C 291.157 52.100,290.755 52.235,290.583 52.081 C 290.412 51.926,290.390 52.007,290.534 52.259 C 290.824 52.765,288.748 55.200,288.027 55.200 C 287.778 55.200,287.454 55.515,287.307 55.899 C 286.906 56.942,285.326 58.400,284.595 58.400 C 284.242 58.400,284.064 58.580,284.200 58.800 C 284.336 59.020,284.156 59.200,283.800 59.200 C 283.444 59.200,283.265 59.381,283.402 59.603 C 283.539 59.824,283.369 60.114,283.025 60.246 C 282.681 60.378,282.400 60.747,282.400 61.066 C 282.400 61.386,282.220 61.536,282.000 61.400 C 281.780 61.264,281.600 61.331,281.600 61.549 C 281.600 61.768,281.240 62.060,280.800 62.200 C 280.360 62.340,280.000 62.667,279.999 62.927 C 279.998 63.575,276.940 66.406,276.603 66.070 C 276.455 65.922,276.370 65.980,276.414 66.200 C 276.604 67.142,276.360 67.670,275.829 67.467 C 275.515 67.346,275.043 67.507,274.780 67.824 C 274.517 68.141,273.874 68.400,273.351 68.400 C 272.828 68.400,272.400 68.580,272.400 68.800 C 272.400 69.020,271.986 69.200,271.480 69.200 C 270.974 69.200,270.389 69.370,270.180 69.577 C 269.971 69.784,268.775 69.995,267.523 70.044 C 266.270 70.094,265.256 70.240,265.270 70.368 C 265.368 71.290,265.049 71.600,264.000 71.600 C 263.067 71.600,262.800 71.422,262.800 70.800 C 262.800 70.076,262.533 70.000,259.976 70.000 C 258.196 70.000,257.244 69.852,257.400 69.600 C 257.540 69.373,257.204 69.200,256.624 69.200 C 256.061 69.200,255.600 69.020,255.600 68.800 C 255.600 68.580,255.162 68.400,254.627 68.400 C 253.990 68.400,253.562 68.110,253.387 67.560 C 253.208 66.995,252.988 66.852,252.717 67.123 C 252.139 67.701,244.800 60.419,244.800 59.266 C 244.800 58.790,244.620 58.400,244.400 58.400 C 244.180 58.400,244.000 58.132,244.000 57.803 C 244.000 57.475,243.640 56.982,243.200 56.707 C 242.565 56.310,242.400 55.774,242.400 54.104 C 242.400 52.930,242.218 52.000,241.989 52.000 C 241.714 52.000,241.615 47.846,241.689 39.451 C 241.776 29.560,241.694 26.942,241.302 27.093 C 240.943 27.231,240.870 26.952,241.040 26.099 C 241.235 25.125,241.128 24.874,240.439 24.694 C 239.859 24.543,239.600 24.154,239.600 23.437 C 239.600 22.867,239.420 22.400,239.200 22.400 C 238.980 22.400,238.800 22.158,238.800 21.861 C 238.800 20.886,237.547 18.787,236.162 17.442 C 235.413 16.714,234.800 15.941,234.800 15.724 C 234.800 15.506,234.350 15.123,233.799 14.872 C 233.249 14.622,232.468 13.873,232.064 13.210 C 231.661 12.546,231.211 12.122,231.065 12.268 C 230.919 12.414,230.800 12.278,230.800 11.967 C 230.800 11.647,230.371 11.375,229.814 11.343 C 229.273 11.312,228.538 10.995,228.182 10.640 C 227.827 10.284,227.342 10.112,227.105 10.259 C 226.834 10.426,226.748 10.242,226.874 9.763 C 227.052 9.082,226.881 9.016,225.286 9.144 C 224.047 9.244,223.582 9.152,223.773 8.844 C 223.973 8.521,217.909 8.400,201.424 8.400 C 185.228 8.400,178.800 8.525,178.800 8.840 M212.300 123.288 C 212.232 123.621,213.026 123.821,214.800 123.919 C 216.230 123.998,217.571 124.229,217.780 124.431 C 217.989 124.634,218.915 124.800,219.837 124.800 C 220.959 124.800,221.591 124.999,221.745 125.400 C 221.889 125.777,222.501 126.000,223.387 126.000 C 224.164 126.000,224.800 126.180,224.800 126.400 C 224.800 126.620,225.340 126.800,226.000 126.800 C 226.660 126.800,227.200 126.980,227.200 127.200 C 227.200 127.420,227.819 127.600,228.576 127.600 C 229.333 127.600,230.064 127.780,230.200 128.000 C 230.336 128.220,230.887 128.400,231.424 128.400 C 232.295 128.400,232.593 128.778,232.447 129.700 C 232.421 129.865,232.861 130.000,233.424 130.000 C 234.004 130.000,234.340 130.173,234.200 130.400 C 234.056 130.633,234.463 130.800,235.176 130.800 C 235.849 130.800,236.400 130.980,236.400 131.200 C 236.400 131.420,236.715 131.606,237.100 131.613 C 237.965 131.628,239.282 132.585,238.927 132.940 C 238.784 133.083,238.841 133.200,239.053 133.200 C 239.266 133.200,239.656 132.984,239.920 132.720 C 240.293 132.347,240.400 132.436,240.400 133.120 C 240.400 133.816,240.633 134.000,241.512 134.000 C 242.165 134.000,242.861 134.330,243.200 134.800 C 243.517 135.240,244.021 135.600,244.320 135.600 C 244.618 135.600,245.534 136.320,246.355 137.200 C 247.175 138.080,248.164 138.800,248.552 138.800 C 249.252 138.800,250.400 139.685,250.400 140.225 C 250.400 140.627,252.521 142.399,253.002 142.400 C 253.224 142.400,253.644 142.940,253.936 143.600 C 254.321 144.469,254.741 144.800,255.462 144.800 C 256.629 144.800,257.595 145.641,257.613 146.671 C 257.628 147.559,258.579 148.888,258.940 148.527 C 259.083 148.384,259.200 148.567,259.200 148.933 C 259.200 149.300,259.442 149.600,259.738 149.600 C 260.422 149.600,261.690 150.977,261.334 151.332 C 261.187 151.480,261.277 151.600,261.533 151.600 C 261.790 151.600,262.000 151.870,262.000 152.200 C 262.000 152.530,262.201 152.755,262.447 152.700 C 262.693 152.645,262.947 152.919,263.013 153.308 C 263.078 153.698,263.504 154.418,263.960 154.908 C 265.859 156.953,266.416 157.782,266.226 158.277 C 266.104 158.593,266.322 158.800,266.775 158.800 C 267.328 158.800,267.470 159.010,267.316 159.600 C 267.177 160.130,267.304 160.400,267.689 160.400 C 268.287 160.400,269.200 161.982,269.200 163.019 C 269.200 163.338,269.380 163.600,269.600 163.600 C 269.820 163.600,270.000 164.067,270.000 164.637 C 270.000 165.338,270.259 165.743,270.800 165.884 C 271.243 166.000,271.600 166.430,271.600 166.847 C 271.600 167.261,271.780 167.600,272.000 167.600 C 272.220 167.600,272.400 168.151,272.400 168.824 C 272.400 169.537,272.567 169.944,272.800 169.800 C 273.025 169.661,273.200 169.982,273.200 170.534 C 273.200 171.073,273.448 171.609,273.751 171.726 C 274.095 171.858,274.229 172.312,274.109 172.939 C 273.972 173.659,274.155 174.090,274.759 174.467 C 275.334 174.826,275.600 175.404,275.600 176.296 C 275.600 177.013,275.780 177.600,276.000 177.600 C 276.220 177.600,276.400 178.320,276.400 179.200 C 276.400 180.080,276.580 180.800,276.800 180.800 C 277.020 180.800,277.200 181.700,277.200 182.800 C 277.200 184.199,277.360 184.800,277.733 184.800 C 278.133 184.800,278.221 185.339,278.086 186.966 C 277.955 188.542,278.083 189.383,278.553 190.055 C 279.406 191.272,279.542 211.419,278.700 211.700 C 278.372 211.809,278.183 212.811,278.149 214.617 C 278.119 216.253,277.916 217.428,277.649 217.517 C 277.398 217.601,277.200 218.534,277.200 219.633 C 277.200 220.715,277.020 221.600,276.800 221.600 C 276.580 221.600,276.400 222.320,276.400 223.200 C 276.400 224.080,276.220 224.800,276.000 224.800 C 275.780 224.800,275.600 225.319,275.600 225.953 C 275.600 226.782,275.368 227.167,274.775 227.322 C 274.322 227.441,273.983 227.777,274.023 228.069 C 274.192 229.314,273.970 230.429,273.600 230.200 C 273.367 230.056,273.200 230.463,273.200 231.176 C 273.200 231.849,273.020 232.400,272.800 232.400 C 272.580 232.400,272.400 232.749,272.400 233.176 C 272.400 233.603,272.220 234.064,272.000 234.200 C 271.780 234.336,271.600 234.843,271.600 235.327 C 271.600 235.811,271.240 236.432,270.800 236.707 C 270.360 236.982,270.000 237.565,270.000 238.003 C 270.000 238.442,269.820 238.800,269.600 238.800 C 269.380 238.800,269.200 239.096,269.200 239.457 C 269.200 239.818,268.660 240.629,268.000 241.260 C 266.728 242.475,266.476 243.184,267.300 243.225 C 267.575 243.239,267.395 243.413,266.900 243.612 C 266.405 243.811,266.000 244.241,266.000 244.567 C 266.000 245.278,264.475 246.958,263.507 247.315 C 263.114 247.459,262.909 247.818,263.033 248.141 C 263.278 248.780,261.732 250.704,258.301 254.030 C 257.035 255.256,256.000 256.561,256.000 256.930 C 256.000 257.298,255.716 257.600,255.369 257.600 C 255.021 257.600,254.076 258.275,253.268 259.100 C 250.631 261.793,248.724 263.256,248.141 263.033 C 247.818 262.909,247.459 263.114,247.315 263.507 C 246.958 264.475,245.278 266.000,244.567 266.000 C 244.241 266.000,243.856 266.315,243.710 266.700 C 243.279 267.838,242.524 268.400,241.429 268.400 C 240.863 268.400,240.400 268.580,240.400 268.800 C 240.400 269.020,240.040 269.200,239.600 269.200 C 239.160 269.200,238.800 269.380,238.800 269.600 C 238.800 269.820,238.442 270.000,238.003 270.000 C 237.565 270.000,236.982 270.360,236.707 270.800 C 236.432 271.240,235.811 271.600,235.327 271.600 C 234.843 271.600,234.336 271.780,234.200 272.000 C 234.064 272.220,233.603 272.400,233.176 272.400 C 232.749 272.400,232.400 272.580,232.400 272.800 C 232.400 273.020,231.849 273.200,231.176 273.200 C 230.463 273.200,230.056 273.367,230.200 273.600 C 230.429 273.970,229.314 274.192,228.069 274.023 C 227.777 273.983,227.441 274.322,227.322 274.775 C 227.167 275.368,226.782 275.600,225.953 275.600 C 225.319 275.600,224.800 275.780,224.800 276.000 C 224.800 276.220,224.080 276.400,223.200 276.400 C 222.320 276.400,221.600 276.580,221.600 276.800 C 221.600 277.020,220.715 277.200,219.633 277.200 C 218.527 277.200,217.601 277.398,217.516 277.652 C 217.430 277.910,216.356 278.129,215.013 278.162 C 213.558 278.198,212.598 278.407,212.497 278.710 C 212.224 279.528,189.720 279.398,188.058 278.569 C 187.363 278.222,186.120 277.997,185.297 278.069 C 184.260 278.160,183.831 278.046,183.900 277.700 C 183.969 277.353,183.387 277.200,182.000 277.200 C 180.900 277.200,180.000 277.020,180.000 276.800 C 180.000 276.580,179.865 276.421,179.700 276.447 C 178.387 276.655,176.740 276.332,176.906 275.900 C 177.047 275.534,176.624 275.438,175.335 275.541 C 174.366 275.619,173.600 275.529,173.634 275.341 C 173.805 274.387,173.506 274.000,172.600 274.000 C 172.050 274.000,171.600 273.820,171.600 273.600 C 171.600 273.380,170.880 273.200,170.000 273.200 C 169.120 273.200,168.400 273.020,168.400 272.800 C 168.400 272.580,168.040 272.400,167.600 272.400 C 167.160 272.400,166.800 272.220,166.800 272.000 C 166.800 271.780,166.442 271.600,166.003 271.600 C 165.565 271.600,164.982 271.240,164.707 270.800 C 164.432 270.360,163.918 270.000,163.565 270.000 C 163.212 270.000,162.507 269.640,162.000 269.200 C 161.493 268.760,160.757 268.400,160.366 268.400 C 159.974 268.400,159.540 268.040,159.400 267.600 C 159.240 267.097,158.795 266.800,158.200 266.800 C 157.631 266.800,157.160 266.505,157.019 266.061 C 156.785 265.321,155.236 264.400,154.227 264.400 C 153.933 264.400,153.397 263.950,153.037 263.400 C 152.676 262.850,152.489 262.400,152.619 262.400 C 153.327 262.400,151.650 261.361,150.855 261.307 C 149.781 261.234,148.310 260.069,148.633 259.547 C 148.751 259.356,148.556 259.200,148.200 259.200 C 147.813 259.200,147.667 259.015,147.838 258.738 C 148.005 258.468,147.949 258.384,147.702 258.537 C 147.234 258.826,144.800 256.732,144.800 256.040 C 144.800 255.798,144.639 255.600,144.442 255.600 C 143.796 255.600,141.600 253.294,141.600 252.616 C 141.600 252.220,141.416 252.067,141.142 252.236 C 140.826 252.431,140.747 252.191,140.887 251.459 C 141.032 250.696,140.922 250.400,140.491 250.400 C 139.759 250.400,138.335 248.829,138.632 248.348 C 138.750 248.157,138.556 248.000,138.200 248.000 C 137.844 248.000,137.664 247.820,137.800 247.600 C 137.936 247.380,137.772 247.200,137.436 247.200 C 137.088 247.200,136.914 246.968,137.032 246.661 C 137.146 246.364,136.693 245.689,136.023 245.161 C 135.354 244.632,134.806 243.885,134.804 243.500 C 134.802 243.115,134.620 242.800,134.400 242.800 C 134.180 242.800,134.000 242.260,134.000 241.600 C 134.000 240.776,133.803 240.400,133.371 240.400 C 132.427 240.400,131.600 239.386,131.600 238.229 C 131.600 237.663,131.420 237.200,131.200 237.200 C 130.980 237.200,130.800 236.840,130.800 236.400 C 130.800 235.960,130.620 235.600,130.400 235.600 C 130.180 235.600,130.000 235.133,130.000 234.563 C 130.000 233.862,129.741 233.457,129.200 233.316 C 128.757 233.200,128.400 232.770,128.400 232.353 C 128.400 231.939,128.220 231.600,128.000 231.600 C 127.780 231.600,127.600 230.981,127.600 230.224 C 127.600 229.467,127.403 228.726,127.162 228.577 C 126.922 228.428,126.789 227.629,126.868 226.802 C 126.972 225.711,126.873 225.351,126.506 225.491 C 126.156 225.626,126.000 225.246,126.000 224.263 C 126.000 223.473,125.754 222.697,125.447 222.520 C 124.906 222.207,124.758 221.547,124.102 216.549 C 123.925 215.202,123.548 213.819,123.265 213.478 C 122.924 213.068,122.767 211.726,122.802 209.528 C 122.871 205.146,122.878 205.200,122.300 205.199 C 121.930 205.198,121.800 204.051,121.800 200.799 C 121.800 197.546,121.930 196.400,122.300 196.400 C 122.668 196.400,122.800 195.291,122.800 192.187 C 122.800 188.948,122.929 187.925,123.359 187.760 C 123.736 187.616,123.899 186.966,123.859 185.772 C 123.820 184.589,123.966 183.999,124.300 184.000 C 124.627 184.000,124.800 183.371,124.800 182.186 C 124.800 181.188,125.091 179.928,125.446 179.385 C 125.802 178.843,126.002 178.051,125.891 177.625 C 125.774 177.178,125.923 176.762,126.244 176.638 C 126.550 176.521,126.800 175.879,126.800 175.213 C 126.800 174.546,126.980 174.000,127.200 174.000 C 127.420 174.000,127.600 173.280,127.600 172.400 C 127.600 171.520,127.780 170.800,128.000 170.800 C 128.220 170.800,128.400 170.320,128.400 169.733 C 128.400 169.147,128.511 168.778,128.648 168.914 C 129.003 169.269,130.000 168.174,130.000 167.429 C 130.000 167.083,130.180 166.800,130.400 166.800 C 130.620 166.800,130.800 166.260,130.800 165.600 C 130.800 164.940,130.980 164.400,131.200 164.400 C 131.420 164.400,131.600 164.104,131.600 163.743 C 131.600 163.382,132.140 162.571,132.800 161.940 C 133.460 161.309,134.000 160.525,134.000 160.197 C 134.000 159.868,134.180 159.600,134.400 159.600 C 134.620 159.600,134.800 159.155,134.800 158.612 C 134.800 157.978,135.230 157.306,136.000 156.737 C 136.660 156.249,137.200 155.577,137.200 155.244 C 137.200 154.494,139.567 152.000,140.278 152.000 C 140.712 152.000,140.885 151.439,140.896 150.000 C 140.898 149.726,149.725 140.979,150.100 140.880 C 150.265 140.836,150.760 140.800,151.200 140.800 C 151.640 140.800,152.000 140.561,152.000 140.270 C 152.000 139.431,153.746 138.012,154.895 137.917 C 155.471 137.869,155.864 137.704,155.768 137.549 C 155.412 136.973,157.678 134.800,158.636 134.800 C 159.166 134.800,159.600 134.620,159.600 134.400 C 159.600 134.180,159.868 134.000,160.197 134.000 C 160.525 134.000,161.309 133.460,161.940 132.800 C 162.571 132.140,163.382 131.600,163.743 131.600 C 164.104 131.600,164.400 131.420,164.400 131.200 C 164.400 130.980,164.940 130.800,165.600 130.800 C 166.260 130.800,166.800 130.620,166.800 130.400 C 166.800 130.180,167.083 130.000,167.429 130.000 C 168.174 130.000,169.269 129.003,168.914 128.648 C 168.778 128.511,169.327 128.400,170.133 128.400 C 170.940 128.400,171.600 128.220,171.600 128.000 C 171.600 127.780,172.140 127.600,172.800 127.600 C 173.460 127.600,174.000 127.420,174.000 127.200 C 174.000 126.980,174.546 126.800,175.213 126.800 C 175.879 126.800,176.521 126.550,176.638 126.244 C 176.762 125.923,177.178 125.774,177.625 125.891 C 178.051 126.002,178.843 125.802,179.385 125.446 C 179.928 125.091,181.188 124.800,182.186 124.800 C 183.371 124.800,184.000 124.626,184.000 124.300 C 184.000 123.951,184.727 123.811,186.400 123.837 C 188.160 123.864,188.800 123.731,188.800 123.337 C 188.800 122.900,190.991 122.800,200.600 122.800 C 209.672 122.800,212.377 122.913,212.300 123.288 " stroke="none" fill="#049cdc" fill-rule="evenodd"></path><path id="path1" d="M169.316 142.800 C 169.160 143.396,168.770 143.600,167.786 143.600 C 166.069 143.600,165.200 143.950,165.200 144.643 C 165.200 144.949,165.020 145.200,164.800 145.200 C 164.580 145.200,164.400 145.470,164.400 145.800 C 164.400 146.130,164.119 146.400,163.776 146.400 C 163.433 146.400,163.240 146.542,163.348 146.715 C 163.455 146.888,163.077 147.069,162.508 147.116 C 161.940 147.163,161.229 147.552,160.928 147.981 C 160.628 148.410,160.116 149.027,159.791 149.352 C 159.466 149.677,159.200 150.406,159.200 150.971 C 159.200 151.537,159.020 152.000,158.800 152.000 C 158.580 152.000,158.400 152.540,158.400 153.200 C 158.400 153.860,158.220 154.400,158.000 154.400 C 157.780 154.400,157.600 155.120,157.600 156.000 C 157.600 157.333,157.467 157.600,156.800 157.600 C 156.005 157.600,156.000 157.867,156.000 202.000 C 156.000 246.133,156.005 246.400,156.800 246.400 C 157.467 246.400,157.600 246.667,157.600 248.000 C 157.600 248.880,157.780 249.600,158.000 249.600 C 158.229 249.600,158.400 250.800,158.400 252.400 C 158.400 255.137,158.423 255.200,159.424 255.200 C 160.030 255.200,160.343 255.369,160.190 255.616 C 160.049 255.845,160.398 256.398,160.966 256.845 C 161.535 257.292,162.000 257.915,162.000 258.229 C 162.000 258.587,162.415 258.800,163.112 258.800 C 163.765 258.800,164.461 259.130,164.800 259.600 C 165.202 260.157,165.835 260.400,166.888 260.400 C 168.133 260.400,168.400 260.541,168.400 261.200 C 168.400 261.968,168.667 262.000,175.000 262.000 C 181.333 262.000,181.600 261.968,181.600 261.200 C 181.600 260.507,181.867 260.400,183.600 260.400 C 184.700 260.400,185.600 260.220,185.600 260.000 C 185.600 259.780,186.140 259.600,186.800 259.600 C 187.460 259.600,188.000 259.420,188.000 259.200 C 188.000 258.980,188.261 258.800,188.579 258.800 C 188.898 258.800,189.644 258.350,190.238 257.800 C 190.831 257.250,191.561 256.800,191.858 256.800 C 192.156 256.800,192.400 256.620,192.400 256.400 C 192.400 256.180,192.940 256.000,193.600 256.000 C 194.260 256.000,194.800 255.820,194.800 255.600 C 194.800 255.380,195.160 255.200,195.600 255.200 C 196.133 255.200,196.400 254.933,196.400 254.400 C 196.400 253.792,196.667 253.600,197.512 253.600 C 198.165 253.600,198.861 253.270,199.200 252.800 C 199.539 252.330,200.235 252.000,200.888 252.000 C 201.500 252.000,202.000 251.820,202.000 251.600 C 202.000 251.380,202.287 251.200,202.637 251.200 C 202.988 251.200,203.369 250.840,203.484 250.400 C 203.600 249.957,204.030 249.600,204.447 249.600 C 204.861 249.600,205.200 249.420,205.200 249.200 C 205.200 248.980,205.515 248.799,205.900 248.799 C 206.285 248.798,206.960 248.259,207.400 247.600 C 207.840 246.941,208.515 246.402,208.900 246.401 C 209.285 246.401,209.600 246.220,209.600 246.000 C 209.600 245.780,210.280 245.600,211.112 245.600 C 212.165 245.600,212.798 245.357,213.200 244.800 C 213.517 244.360,214.193 244.000,214.701 244.000 C 215.213 244.000,215.743 243.688,215.890 243.300 C 216.355 242.074,217.104 241.598,218.976 241.341 C 220.040 241.195,220.800 240.882,220.800 240.589 C 220.800 240.313,221.219 239.982,221.730 239.853 C 222.242 239.725,223.230 239.075,223.927 238.410 C 224.623 237.744,225.554 237.200,225.996 237.200 C 226.533 237.200,226.800 236.935,226.800 236.400 C 226.800 235.741,227.067 235.600,228.312 235.600 C 229.365 235.600,229.998 235.357,230.400 234.800 C 230.717 234.360,231.225 234.000,231.528 234.000 C 231.831 234.000,232.583 233.460,233.200 232.800 C 233.817 232.140,234.609 231.600,234.960 231.600 C 235.312 231.600,235.600 231.420,235.600 231.200 C 235.600 230.980,236.140 230.800,236.800 230.800 C 237.460 230.800,238.000 230.620,238.000 230.400 C 238.000 230.180,238.348 230.000,238.773 230.000 C 239.198 230.000,239.660 229.640,239.800 229.200 C 239.940 228.760,240.312 228.400,240.627 228.400 C 240.942 228.400,241.200 228.220,241.200 228.000 C 241.200 227.780,241.470 227.600,241.800 227.600 C 242.130 227.600,242.400 227.420,242.400 227.200 C 242.400 226.980,243.120 226.800,244.000 226.800 C 245.328 226.800,245.600 226.665,245.600 226.008 C 245.600 225.502,245.952 225.127,246.573 224.971 C 247.214 224.810,247.470 224.527,247.323 224.143 C 247.148 223.688,247.328 223.617,248.138 223.820 C 249.204 224.088,250.383 223.367,250.139 222.596 C 249.849 221.682,250.648 221.162,251.720 221.569 C 252.522 221.875,252.912 221.831,253.358 221.385 C 253.680 221.063,254.136 220.800,254.371 220.800 C 254.607 220.800,254.800 220.620,254.800 220.400 C 254.800 220.180,255.250 220.000,255.800 220.000 C 256.350 220.000,256.800 219.818,256.800 219.596 C 256.800 218.927,259.039 216.800,259.743 216.800 C 260.206 216.800,260.400 216.446,260.400 215.600 C 260.400 214.776,260.597 214.400,261.029 214.400 C 261.750 214.400,262.800 213.465,262.800 212.823 C 262.800 211.688,264.465 209.600,265.371 209.600 C 266.251 209.600,266.327 196.611,265.449 196.274 C 265.096 196.139,264.971 195.686,265.101 195.007 C 265.260 194.175,265.122 193.905,264.451 193.729 C 263.831 193.567,263.600 193.193,263.600 192.353 C 263.600 191.384,263.437 191.200,262.582 191.200 C 261.346 191.200,259.600 189.554,259.600 188.390 C 259.600 187.379,258.714 186.400,257.800 186.400 C 256.967 186.400,256.000 185.448,256.000 184.629 C 256.000 184.208,255.632 184.000,254.888 184.000 C 254.235 184.000,253.539 183.670,253.200 183.200 C 252.883 182.760,252.331 182.400,251.974 182.400 C 251.616 182.400,250.998 182.040,250.600 181.600 C 250.202 181.160,249.634 180.800,249.338 180.800 C 249.042 180.800,248.800 180.620,248.800 180.400 C 248.800 180.180,248.260 180.000,247.600 180.000 C 246.940 180.000,246.400 179.820,246.400 179.600 C 246.400 179.380,246.122 179.200,245.783 179.200 C 245.443 179.200,244.680 178.750,244.087 178.200 C 243.493 177.650,242.691 177.200,242.304 177.200 C 241.867 177.200,241.600 176.897,241.600 176.400 C 241.600 175.752,241.333 175.600,240.200 175.600 C 239.067 175.600,238.800 175.448,238.800 174.800 C 238.800 174.178,238.533 174.000,237.600 174.000 C 236.940 174.000,236.400 173.820,236.400 173.600 C 236.400 173.380,236.116 173.200,235.769 173.200 C 235.421 173.200,234.446 172.480,233.600 171.600 C 232.112 170.051,230.427 169.477,230.375 170.500 C 230.361 170.775,230.187 170.595,229.988 170.100 C 229.773 169.567,229.283 169.200,228.784 169.200 C 227.892 169.200,226.800 168.339,226.800 167.636 C 226.800 167.405,226.350 167.102,225.800 166.964 C 225.250 166.826,224.800 166.553,224.800 166.357 C 224.800 166.160,224.350 166.000,223.800 166.000 C 223.250 166.000,222.800 165.820,222.800 165.600 C 222.800 165.380,222.427 165.200,221.971 165.200 C 221.081 165.200,220.000 164.333,220.000 163.619 C 220.000 163.377,219.446 163.069,218.768 162.934 C 218.091 162.798,217.327 162.353,217.072 161.944 C 216.770 161.461,216.141 161.200,215.275 161.200 C 213.960 161.200,212.800 160.463,212.800 159.629 C 212.800 159.393,212.300 159.200,211.688 159.200 C 211.035 159.200,210.339 158.870,210.000 158.400 C 209.683 157.960,209.109 157.600,208.726 157.600 C 208.342 157.600,207.835 157.240,207.600 156.800 C 207.365 156.360,206.908 156.000,206.586 156.000 C 206.264 156.000,206.000 155.820,206.000 155.600 C 206.000 155.380,205.500 155.200,204.888 155.200 C 204.235 155.200,203.539 154.870,203.200 154.400 C 202.883 153.960,202.375 153.600,202.072 153.600 C 201.769 153.600,201.017 153.060,200.400 152.400 C 199.556 151.497,198.923 151.200,197.840 151.200 C 197.048 151.200,196.400 151.020,196.400 150.800 C 196.400 150.580,196.116 150.400,195.769 150.400 C 195.421 150.400,194.470 149.725,193.654 148.900 C 191.930 147.157,190.718 146.400,189.652 146.400 C 189.230 146.400,188.801 146.045,188.684 145.600 C 188.543 145.059,188.138 144.800,187.437 144.800 C 186.867 144.800,186.400 144.631,186.400 144.424 C 186.400 144.218,185.140 143.924,183.600 143.773 C 181.229 143.539,180.800 143.382,180.800 142.748 C 180.800 141.551,169.629 141.601,169.316 142.800 " stroke="none" fill="#ec6c1c" fill-rule="evenodd"></path><path id="path2" d="M44.937 94.600 C 44.939 96.360,45.009 97.030,45.093 96.089 C 45.178 95.149,45.177 93.709,45.091 92.889 C 45.005 92.070,44.936 92.840,44.937 94.600 M194.725 123.099 C 198.093 123.166,203.493 123.166,206.725 123.099 C 209.956 123.032,207.200 122.977,200.600 122.977 C 194.000 122.977,191.356 123.032,194.725 123.099 M122.971 188.132 C 122.859 188.424,122.827 190.269,122.901 192.232 L 123.035 195.800 123.118 191.933 C 123.174 189.280,123.357 188.003,123.700 187.865 C 124.092 187.707,124.089 187.656,123.687 187.632 C 123.406 187.614,123.083 187.839,122.971 188.132 M122.942 209.800 C 122.941 211.780,123.008 212.640,123.092 211.712 C 123.176 210.784,123.177 209.164,123.095 208.112 C 123.012 207.060,122.943 207.820,122.942 209.800 M250.233 221.857 C 249.880 222.778,250.185 222.943,251.220 222.389 C 251.926 222.011,251.995 221.842,251.554 221.563 C 250.761 221.061,250.518 221.115,250.233 221.857 M48.846 293.267 C 48.821 293.633,48.575 294.014,48.300 294.112 C 48.025 294.210,47.895 294.395,48.012 294.523 C 48.438 294.993,49.273 294.082,49.086 293.352 C 48.931 292.748,48.884 292.731,48.846 293.267 M44.937 307.400 C 44.939 309.160,45.009 309.830,45.093 308.889 C 45.178 307.949,45.177 306.509,45.091 305.689 C 45.005 304.870,44.936 305.640,44.937 307.400 M145.700 333.076 C 146.085 333.176,146.400 333.425,146.400 333.629 C 146.400 333.833,146.602 334.000,146.849 334.000 C 147.159 334.000,147.144 333.815,146.800 333.400 C 146.526 333.070,146.009 332.821,145.651 332.846 C 145.102 332.886,145.109 332.921,145.700 333.076 " stroke="none" fill="#3c84e0" fill-rule="evenodd"></path><path id="path3" d="M44.937 94.600 C 44.939 96.360,45.009 97.030,45.093 96.089 C 45.178 95.149,45.177 93.709,45.091 92.889 C 45.005 92.070,44.936 92.840,44.937 94.600 M194.725 123.099 C 198.093 123.166,203.493 123.166,206.725 123.099 C 209.956 123.032,207.200 122.977,200.600 122.977 C 194.000 122.977,191.356 123.032,194.725 123.099 M122.971 188.132 C 122.859 188.424,122.827 190.269,122.901 192.232 L 123.035 195.800 123.118 191.933 C 123.174 189.280,123.357 188.003,123.700 187.865 C 124.092 187.707,124.089 187.656,123.687 187.632 C 123.406 187.614,123.083 187.839,122.971 188.132 M122.942 209.800 C 122.941 211.780,123.008 212.640,123.092 211.712 C 123.176 210.784,123.177 209.164,123.095 208.112 C 123.012 207.060,122.943 207.820,122.942 209.800 M250.233 221.857 C 249.880 222.778,250.185 222.943,251.220 222.389 C 251.926 222.011,251.995 221.842,251.554 221.563 C 250.761 221.061,250.518 221.115,250.233 221.857 M48.846 293.267 C 48.821 293.633,48.575 294.014,48.300 294.112 C 48.025 294.210,47.895 294.395,48.012 294.523 C 48.438 294.993,49.273 294.082,49.086 293.352 C 48.931 292.748,48.884 292.731,48.846 293.267 M44.937 307.400 C 44.939 309.160,45.009 309.830,45.093 308.889 C 45.178 307.949,45.177 306.509,45.091 305.689 C 45.005 304.870,44.936 305.640,44.937 307.400 M145.700 333.076 C 146.085 333.176,146.400 333.425,146.400 333.629 C 146.400 333.833,146.602 334.000,146.849 334.000 C 147.159 334.000,147.144 333.815,146.800 333.400 C 146.526 333.070,146.009 332.821,145.651 332.846 C 145.102 332.886,145.109 332.921,145.700 333.076 " stroke="none" fill="#3c84e0" fill-rule="evenodd"></path><path id="path4" d="M44.937 94.600 C 44.939 96.360,45.009 97.030,45.093 96.089 C 45.178 95.149,45.177 93.709,45.091 92.889 C 45.005 92.070,44.936 92.840,44.937 94.600 M194.725 123.099 C 198.093 123.166,203.493 123.166,206.725 123.099 C 209.956 123.032,207.200 122.977,200.600 122.977 C 194.000 122.977,191.356 123.032,194.725 123.099 M122.971 188.132 C 122.859 188.424,122.827 190.269,122.901 192.232 L 123.035 195.800 123.118 191.933 C 123.174 189.280,123.357 188.003,123.700 187.865 C 124.092 187.707,124.089 187.656,123.687 187.632 C 123.406 187.614,123.083 187.839,122.971 188.132 M122.942 209.800 C 122.941 211.780,123.008 212.640,123.092 211.712 C 123.176 210.784,123.177 209.164,123.095 208.112 C 123.012 207.060,122.943 207.820,122.942 209.800 M250.233 221.857 C 249.880 222.778,250.185 222.943,251.220 222.389 C 251.926 222.011,251.995 221.842,251.554 221.563 C 250.761 221.061,250.518 221.115,250.233 221.857 M48.846 293.267 C 48.821 293.633,48.575 294.014,48.300 294.112 C 48.025 294.210,47.895 294.395,48.012 294.523 C 48.438 294.993,49.273 294.082,49.086 293.352 C 48.931 292.748,48.884 292.731,48.846 293.267 M44.937 307.400 C 44.939 309.160,45.009 309.830,45.093 308.889 C 45.178 307.949,45.177 306.509,45.091 305.689 C 45.005 304.870,44.936 305.640,44.937 307.400 M145.700 333.076 C 146.085 333.176,146.400 333.425,146.400 333.629 C 146.400 333.833,146.602 334.000,146.849 334.000 C 147.159 334.000,147.144 333.815,146.800 333.400 C 146.526 333.070,146.009 332.821,145.651 332.846 C 145.102 332.886,145.109 332.921,145.700 333.076 " stroke="none" fill="#3c84e0" fill-rule="evenodd"></path></g></svg>